# Blender v2.81 (sub 16) OBJ File: ''
# www.blender.org
mtllib fences.mtl
o mansion_cource.103_mansion_cource.031
v -2.718750 13.406269 -57.718742
v 2.968750 13.406269 -60.296871
v 2.968750 6.250020 -60.296879
v -2.718750 6.250020 -57.718750
v -14.859380 6.250020 -57.718750
v -20.546881 6.250020 -60.296879
v -20.546881 13.406269 -60.296871
v -14.859380 13.406269 -57.718742
vt -1.593750 -1.012207
vt 7.710938 -1.012207
vt 7.710938 0.012695
vt -1.593750 0.012695
vt 7.710938 0.012695
vt -1.593750 0.012695
vt -1.593750 -1.012207
vt 7.710938 -1.012207
vn -0.6367 -0.0000 -0.7711
vn -0.4129 0.0000 -0.9108
vn 0.6367 0.0000 -0.7711
vn 0.4129 0.0000 -0.9108
usemtl material_2.000
s 1
f 1/1/1 2/2/2 3/3/1
f 1/1/1 3/3/1 4/4/2
f 5/5/3 6/6/4 7/7/3
f 5/5/3 7/7/3 8/8/4
o mansion_cource.115_mansion_cource.015
v -2.718750 15.578149 -57.718742
v 5.734375 14.687519 -57.718742
v 5.734375 12.578149 -57.718742
v -2.718750 13.343769 -57.718742
v 5.734375 12.578149 -57.718742
v 5.734375 14.687519 -57.718742
v 21.015631 16.312519 -57.718742
v 21.015631 14.218769 -57.718742
v 21.015631 14.218769 -57.718742
v 21.015631 16.312519 -57.718742
v 29.437500 14.593769 -57.718742
v 29.437500 13.343769 -57.718742
v -60.953129 14.593769 -57.718742
v -47.406250 15.093769 -57.718742
v -47.406250 13.843769 -57.718742
v -60.953129 13.343769 -57.718742
v -47.406250 13.843769 -57.718742
v -47.406250 15.093769 -57.718742
v -33.765629 14.343769 -57.718742
v -33.765629 12.343769 -57.718742
v -33.765629 12.343769 -57.718742
v -33.765629 14.343769 -57.718742
v -14.859380 16.234400 -57.718742
v -14.859380 13.343769 -57.718742
v 146.718796 18.343765 -43.843742
v 146.718796 16.328146 -43.843742
v 155.375000 16.953146 -44.906242
v 155.375000 18.968765 -44.906242
v 155.375000 16.953146 -44.906242
v 167.000000 15.890645 -46.546871
v 167.000000 17.906265 -46.546871
v 155.375000 18.968765 -44.906242
v 167.000000 15.890645 -46.546871
v 178.625000 15.671895 -48.187492
v 178.625000 16.921896 -48.187492
v 167.000000 17.906265 -46.546871
v 178.625000 15.671895 -48.187492
v 190.250000 16.125015 -49.828121
v 190.250000 17.375015 -49.828121
v 178.625000 16.921896 -48.187492
v 190.250000 16.125015 -49.828121
v 201.890594 15.234397 -51.468742
v 201.890594 16.484396 -51.468742
v 190.250000 17.375015 -49.828121
v 201.890594 15.234397 -51.468742
v 236.671906 15.796905 -78.671883
v 236.671906 17.046907 -78.671883
v 201.890594 16.484396 -51.468742
v 49.265629 15.656267 -55.578121
v 49.265629 14.406267 -55.578121
v 75.406250 15.531265 -48.874992
v 75.406250 16.781265 -48.874992
v 75.406250 15.531265 -48.874992
v 97.734383 16.906265 -46.640621
v 97.734383 18.156265 -46.640621
v 75.406250 16.781265 -48.874992
v 97.734383 16.906265 -46.640621
v 108.906303 16.000015 -45.515621
v 108.906303 17.968765 -45.515621
v 97.734383 18.156265 -46.640621
v 108.906303 16.000015 -45.515621
v 120.078102 17.218765 -44.390621
v 120.078102 19.187515 -44.390621
v 108.906303 17.968765 -45.515621
v 120.078102 17.218765 -44.390621
v 128.171906 16.437515 -43.734371
v 128.171906 18.406265 -43.734371
v 120.078102 19.187515 -44.390621
v 172.078094 8.468714 109.031303
v 192.640594 8.468723 84.484383
v 192.640594 6.249972 84.484383
v 172.078094 6.249964 109.031303
v 192.640594 6.249972 84.484383
v 192.640594 8.468723 84.484383
v 211.828094 8.468742 21.812504
v 211.828094 6.249994 21.812504
v 211.828094 6.249994 21.812504
v 211.828094 8.468742 21.812504
v 215.437500 12.718756 -19.921877
v 215.437500 10.500006 -19.921877
v 215.437500 10.500006 -19.921877
v 215.437500 12.718756 -19.921877
v 201.890594 14.281267 -51.468742
v 201.890594 12.062517 -51.468742
v 201.890594 12.062517 -51.468742
v 201.890594 14.281267 -51.468742
v 200.625000 22.437523 -75.781250
v 200.625000 20.218773 -75.781250
v 200.625000 20.218773 -75.781250
v 200.625000 22.437523 -75.781250
v 200.000000 25.156292 -124.999985
v 200.000000 22.937542 -125.000000
v 58.359379 11.124996 12.140634
v 58.359379 8.359371 12.140632
v 75.406250 12.343765 -48.874992
v 75.406250 15.125015 -48.874992
v 75.406250 12.343765 -48.874992
v 75.406250 20.250023 -75.703133
v 75.406250 23.031273 -75.703133
v 75.406250 15.125015 -48.874992
v 75.406250 20.250023 -75.703133
v 75.000000 22.937542 -125.000000
v 75.000000 25.718792 -124.999985
v 75.406250 23.031273 -75.703133
vt -12.847660 -0.015625
vt -5.798828 -0.015625
vt -5.705078 -0.992188
vt -12.751950 -0.992188
vt -5.705078 -0.992188
vt -5.798828 -0.015625
vt 6.712891 -0.015625
vt 6.808594 -0.990234
vt 6.808594 -0.990234
vt 6.712891 -0.015625
vt 13.751950 -0.015625
vt 13.847660 -0.990234
vt -15.164060 -0.019531
vt -5.931641 -0.019531
vt -5.962891 -0.988281
vt -15.195310 -0.988281
vt -5.962891 -0.988281
vt -5.931641 -0.019531
vt 3.306641 -0.019531
vt 3.275391 -0.988281
vt 3.275391 -0.988281
vt 3.306641 -0.019531
vt 16.195311 -0.019531
vt 16.164061 -0.988281
vt -38.017578 -0.021484
vt -37.802731 -0.986328
vt -28.470699 -0.986328
vt -28.685551 -0.021484
vt -28.470699 -0.986328
vt -19.210939 -0.986328
vt -19.423830 -0.021484
vt -28.685551 -0.021484
vt -19.210939 -0.986328
vt -9.914063 -0.986328
vt -10.126950 -0.021484
vt -19.423830 -0.021484
vt -9.914063 -0.986328
vt -0.589844 -0.986328
vt -0.802734 -0.021484
vt -10.126950 -0.021484
vt -0.589844 -0.986328
vt 8.679688 -0.986328
vt 8.464844 -0.021484
vt -0.802734 -0.021484
vt 8.679688 -0.986328
vt 39.013672 -0.988281
vt 38.798828 -0.023438
vt 8.464844 -0.021484
vt -28.748051 -0.019531
vt -28.785160 -0.998047
vt -9.626953 -0.998047
vt -9.589844 -0.019531
vt -9.626953 -0.998047
vt 6.154297 -0.998047
vt 6.191406 -0.015625
vt -9.589844 -0.019531
vt 6.154297 -0.998047
vt 13.998050 -0.998047
vt 14.035160 -0.015625
vt 6.191406 -0.015625
vt 13.998050 -0.998047
vt 21.904301 -0.998047
vt 21.941410 -0.013672
vt 14.035160 -0.015625
vt 21.904301 -0.998047
vt 29.748051 -0.998047
vt 29.785160 -0.013672
vt 21.941410 -0.013672
vt -32.560551 -0.021484
vt -9.970703 -0.021484
vt -9.970703 -1.000000
vt -32.560551 -1.000000
vt -9.970703 -1.000000
vt -9.970703 -0.021484
vt 32.625000 -0.021484
vt 32.625000 -1.000000
vt -50.427731 -1.000000
vt -50.427731 -0.021484
vt -21.666019 -0.021484
vt -21.666019 -1.000000
vt -21.666019 -1.000000
vt -21.666019 -0.021484
vt -3.712891 -0.021484
vt -3.712891 -1.000000
vt -3.712891 -1.000000
vt -3.712891 -0.021484
vt 16.953131 -0.019531
vt 16.953131 -1.000000
vt 16.953131 -1.000000
vt 16.953131 -0.019531
vt 40.755859 -0.021484
vt 40.755859 -1.000000
vt -38.857422 -0.027344
vt -38.902340 -0.994141
vt -2.462891 -0.994141
vt -2.417969 -0.027344
vt -2.462891 -0.994141
vt 12.621090 -1.023438
vt 12.666020 -0.029297
vt -2.417969 -0.027344
vt 12.621090 -1.023438
vt 39.857422 -0.984375
vt 39.902340 -0.027344
vt 12.666020 -0.029297
vn 0.0000 0.0000 -1.0000
vn 0.2367 0.0000 0.9716
vn 0.1218 0.0000 0.9926
vn 0.2692 -0.0000 0.9631
vn 0.1397 0.0000 0.9902
vn 0.2688 0.0000 0.9632
vn 0.1396 0.0000 0.9902
vn 0.7071 0.0015 0.7071
vn 0.6161 0.0000 0.7877
vn 0.7071 0.0000 0.7071
vn -0.4449 0.0000 0.8956
vn -0.2484 0.0000 0.9687
vn -0.1953 0.0000 0.9807
vn -0.0996 0.0000 0.9950
vn -0.1965 0.0000 0.9805
vn -0.1002 0.0000 0.9950
vn -0.1596 0.0000 0.9872
vn -0.0808 0.0000 0.9967
vn -0.7071 0.0000 -0.7071
vn -0.7666 0.0000 -0.6421
vn -0.8630 0.0000 -0.5053
vn -0.9562 0.0000 -0.2927
vn -0.9855 0.0000 -0.1698
vn -0.9963 0.0000 -0.0862
vn -0.7850 -0.0000 0.6195
vn -0.9189 0.0000 0.3946
vn -0.9946 0.0000 0.1034
vn -0.9986 0.0000 0.0520
vn -0.9997 -0.0000 0.0254
vn -0.9999 0.0000 0.0127
vn 0.8806 0.0000 0.4739
vn 0.9631 0.0000 0.2691
vn 1.0000 0.0000 0.0000
vn 0.9999 0.0000 -0.0165
vn 1.0000 0.0000 -0.0082
usemtl material_14.000
s 1
f 9/9/5 10/10/5 11/11/5
f 9/9/5 11/11/5 12/12/5
f 13/13/5 14/14/5 15/15/5
f 13/13/5 15/15/5 16/16/5
f 17/17/5 18/18/5 19/19/5
f 17/17/5 19/19/5 20/20/5
f 21/21/5 22/22/5 23/23/5
f 21/21/5 23/23/5 24/24/5
f 25/25/5 26/26/5 27/27/5
f 25/25/5 27/27/5 28/28/5
f 29/29/5 30/30/5 31/31/5
f 29/29/5 31/31/5 32/32/5
f 33/33/6 34/34/7 35/35/6
f 33/33/6 35/35/6 36/36/7
f 37/37/8 38/38/9 39/39/8
f 37/37/8 39/39/8 40/40/9
f 41/41/8 42/42/9 43/43/8
f 41/41/8 43/43/8 44/44/9
f 45/45/8 46/46/9 47/47/8
f 45/45/8 47/47/8 48/48/9
f 49/49/10 50/50/11 51/51/10
f 49/49/10 51/51/10 52/52/11
f 53/53/12 54/54/13 55/55/14
f 53/53/12 55/55/14 56/56/13
f 57/57/15 58/58/16 59/59/15
f 57/57/15 59/59/15 60/60/16
f 61/61/17 62/62/18 63/63/17
f 61/61/17 63/63/17 64/64/18
f 65/65/19 66/66/20 67/67/19
f 65/65/19 67/67/19 68/68/20
f 69/69/19 70/70/20 71/71/19
f 69/69/19 71/71/19 72/72/20
f 73/73/21 74/74/22 75/75/21
f 73/73/21 75/75/21 76/76/22
f 77/77/23 78/78/24 79/79/23
f 77/77/23 79/79/23 80/80/24
f 81/81/25 82/82/26 83/83/25
f 81/81/25 83/83/25 84/84/26
f 85/85/27 86/86/28 87/87/27
f 85/85/27 87/87/27 88/88/28
f 89/89/29 90/90/30 91/91/29
f 89/89/29 91/91/29 92/92/30
f 93/93/31 94/94/32 95/95/31
f 93/93/31 95/95/31 96/96/32
f 97/97/33 98/98/34 99/99/33
f 97/97/33 99/99/33 100/100/34
f 101/101/35 102/102/36 103/103/35
f 101/101/35 103/103/35 104/104/36
f 105/105/37 106/106/37 107/107/37
f 105/105/37 107/107/37 108/108/37
f 109/109/38 110/110/39 111/111/38
f 109/109/38 111/111/38 112/112/39
