# Blender v2.79 (sub 0) OBJ File: 'MKDSRender.blend'
# www.blender.org
mtllib models\Skybox.mtl
o sky.001
v 17.984381 123.203148 -292.406281
v -38.890629 123.203148 -292.406281
v -38.890629 70.765678 -292.406311
v 17.984381 70.765678 -292.406311
vt 0.000977 0.000000
vt 0.997070 0.000000
vt 0.997070 -1.000000
vt 0.000977 -1.000000
vn 0.0000 -0.0000 1.0000
usemtl material_0.002
s 1
f 1/1/1 2/2/1 3/3/1
f 1/1/1 3/3/1 4/4/1
o sky
v 484.187500 284.937561 -397.218750
v -408.062500 284.937561 -397.218750
v -408.062500 -35.515564 -397.218811
v 484.187500 -35.515564 -397.218811
v -408.062500 284.937561 -397.218750
v -408.062500 284.937439 364.812561
v -408.062500 -35.515690 364.812500
v -408.062500 -35.515564 -397.218811
v -408.062500 284.937439 364.812561
v 484.187500 284.937439 364.812561
v 484.187500 -35.515690 364.812500
v -408.062500 -35.515690 364.812500
v 484.187500 284.937439 364.812561
v 484.187500 284.937561 -397.218750
v 484.187500 -35.515564 -397.218811
v 484.187500 -35.515690 364.812500
v -408.062500 284.937439 364.812561
v 114.671898 438.546906 -55.374928
v 484.187500 284.937439 364.812561
v -408.062500 284.937439 364.812561
v -408.062500 284.937561 -397.218750
v 114.671898 438.546906 -55.374928
v 114.671898 438.546906 -55.374928
v -408.062500 284.937561 -397.218750
v 484.187500 284.937561 -397.218750
v 484.187500 284.937439 364.812561
v 114.671898 438.546906 -55.374928
v 484.187500 284.937561 -397.218750
vt 1.006104 -1.010498
vt 1.507324 -1.010498
vt 1.507324 -1.508545
vt 1.006104 -1.508545
vt 1.507324 -1.010498
vt 1.999268 -1.010498
vt 1.999268 -1.508545
vt 1.507324 -1.508545
vt -0.001221 -1.010498
vt 0.507080 -1.010498
vt 0.507080 -1.508545
vt -0.001221 -1.508545
vt 0.507080 -1.010498
vt 1.006104 -1.010498
vt 1.006104 -1.508545
vt 0.507080 -1.508545
vt -0.001221 -1.010498
vt 0.195312 -0.706055
vt 0.507080 -1.010498
vt 1.999268 -1.010498
vt 1.507324 -1.010498
vt 1.734375 -0.705810
vt 1.271973 -0.705810
vt 1.507324 -1.010498
vt 1.006104 -1.010498
vt 0.507080 -1.010498
vt 0.750000 -0.705810
vt 1.006104 -1.010498
vn 0.0000 -0.0000 1.0000
vn 1.0000 0.0000 0.0000
vn 0.0000 0.0000 -1.0000
vn -1.0000 -0.0000 0.0000
vn 0.0000 -0.7071 -0.7071
vn 0.7071 -0.7071 -0.0000
vn 0.0000 -0.7071 0.7071
vn -0.7071 -0.7071 -0.0000
usemtl material_1.002
s 1
f 5/5/2 6/6/2 7/7/2
f 5/5/2 7/7/2 8/8/2
f 9/9/3 10/10/3 11/11/3
f 9/9/3 11/11/3 12/12/3
f 13/13/4 14/14/4 15/15/4
f 13/13/4 15/15/4 16/16/4
f 17/17/5 18/18/5 19/19/5
f 17/17/5 19/19/5 20/20/5
f 21/21/6 22/22/6 23/23/6
f 24/24/7 25/25/7 26/26/7
f 27/27/8 28/28/8 29/29/8
f 30/30/9 31/31/9 32/32/9
